<svg width="32" height="32" viewBox="0 0 32 32" fill="none" xmlns="http://www.w3.org/2000/svg">
  <rect width="32" height="32" rx="8" fill="#171717"/>
  <path d="M10 12C10 10.8954 10.8954 10 12 10H20C21.1046 10 22 10.8954 22 12V16C22 19.3137 19.3137 22 16 22C12.6863 22 10 19.3137 10 16V12Z" stroke="#FFFFFF" stroke-width="2"/>
  <path d="M22 13H24C25.1046 13 26 13.8954 26 15C26 16.1046 25.1046 17 24 17H22" stroke="#FFFFFF" stroke-width="2" stroke-linecap="round"/>
  <path d="M12 6V8" stroke="#FFFFFF" stroke-width="2" stroke-linecap="round"/>
  <path d="M16 5V8" stroke="#FFFFFF" stroke-width="2" stroke-linecap="round"/>
  <path d="M20 6V8" stroke="#FFFFFF" stroke-width="2" stroke-linecap="round"/>
  <circle cx="16" cy="16" r="1.5" fill="#A855F7" />
</svg>